# xmcd
#
# Track frame offsets:
#	150
#	12015
#	24052
#	37210
#	53347
#	66577
#	81982
#	101950
#	115635
#	135882
#	156425
#	175362
#	193722
#	210402
#	233660
#
# Disc length: 3393 seconds
#
# Revision: 1
# Processed by: cddbd v1.4PL0 Copyright (c) Steve Scherf et al.
# Submitted via: audiograbber 1.81.02
#
DISCID=bf0d3f0f
DTITLE=Andraé Crouch - History Makers 15 Songs That Redefined Gospel Music In T
DTITLE=he 1970s (www.gerth.de)
DYEAR=2003
DGENRE=Gospel
TTITLE0=The Blood Will Never Lose Its Power
TTITLE1=I m Gonna Keep On Singin
TTITLE2=I ve Got Confidence
TTITLE3=My Tribute (To God Be The Glory)
TTITLE4=I Dont Know Why Jesus Loves Me
TTITLE5=Through It All
TTITLE6=It Wont Be Long
TTITLE7=Bless His Holy Name
TTITLE8=Jesus Is The Answer
TTITLE9=Just Like He Said He Would
TTITLE10=Take Me Back
TTITLE11=Perfect Peace
TTITLE12=Soon And Very Soon
TTITLE13=I ll Be Thinking Of You
TTITLE14=Its Gonna Rain
EXTD=
EXTT0=
EXTT1=
EXTT2=
EXTT3=
EXTT4=
EXTT5=
EXTT6=
EXTT7=
EXTT8=
EXTT9=
EXTT10=
EXTT11=
EXTT12=
EXTT13=
EXTT14=
PLAYORDER=
